HIERARCHY
ROOT root
{
	OFFSET	0	13.1	24.9
	CHANNELS 6  Xposition Yposition Zposition Xrotation Yrotation Zrotation
	JOINT spine_1
	{
		OFFSET	0	9.99999	0
		CHANNELS 3  Xrotation Yrotation Zrotation
		JOINT spine_2
		{
			OFFSET	0	112	-10
			CHANNELS 3  Xrotation Yrotation Zrotation
			JOINT spine_3
			{
				OFFSET	0	206.5	19.3
				CHANNELS 3  Xrotation Yrotation Zrotation
				JOINT spine_4
				{
					OFFSET	0	110.4	14.6
					CHANNELS 3  Xrotation Yrotation Zrotation
					JOINT neck_1
					{
						OFFSET	0	71.8	-50.3
						CHANNELS 3  Xrotation Yrotation Zrotation
						JOINT neck_2
						{
							OFFSET	0	86.2	-25.8
							CHANNELS 3  Xrotation Yrotation Zrotation
							JOINT head_ee
							{
								OFFSET	0	179.8	-8.7
								CHANNELS 3  Xrotation Yrotation Zrotation
								End Site
								{
									OFFSET	1	0	0
								}
							}
						}
					}
					JOINT left_clavicle
					{
						OFFSET	-43.2	22.4	-70.8
						CHANNELS 3  Xrotation Yrotation Zrotation
						JOINT left_shoulder
						{
							OFFSET	-93.9	-5.79999	48.7
							CHANNELS 3  Xrotation Yrotation Zrotation
							JOINT left_elbow
							{
								OFFSET	-291.4	-30.8	15.2
								CHANNELS 3  Xrotation Yrotation Zrotation
								JOINT left_lowarm_twist
								{
									OFFSET	-110.7	-3.89999	13.6
									CHANNELS 3  Xrotation Yrotation Zrotation
									JOINT left_hand
									{
										OFFSET	-110.7	-3.89999	13.6
										CHANNELS 3  Xrotation Yrotation Zrotation
										JOINT left_ee
										{
											OFFSET	-80.8	-5.10001	12.1
											CHANNELS 3  Xrotation Yrotation Zrotation
											End Site
											{
												OFFSET	1	0	0
											}
										}
									}
								}
							}
						}
					}
					JOINT right_clavicle
					{
						OFFSET	43.2	22.4	-70.8
						CHANNELS 3  Xrotation Yrotation Zrotation
						JOINT right_shoulder
						{
							OFFSET	93.9	-5.79999	48.7
							CHANNELS 3  Xrotation Yrotation Zrotation
							JOINT right_elbow
							{
								OFFSET	291.4	-30.8	15.2
								CHANNELS 3  Xrotation Yrotation Zrotation
								JOINT right_lowarm_twist
								{
									OFFSET	110.7	-3.89999	13.6
									CHANNELS 3  Xrotation Yrotation Zrotation
									JOINT right_hand
									{
										OFFSET	110.7	-3.89999	13.6
										CHANNELS 3  Xrotation Yrotation Zrotation
										JOINT right_ee
										{
											OFFSET	80.8	-5.10001	12.1
											CHANNELS 3  Xrotation Yrotation Zrotation
											End Site
											{
												OFFSET	1	0	0
											}
										}
									}
								}
							}
						}
					}
				}
			}
		}
	}
	JOINT left_hip
	{
		OFFSET	-82.8	-127.5	0.300001
		CHANNELS 3  Xrotation Yrotation Zrotation
		JOINT left_knee
		{
			OFFSET	-28.2	-396.7	2.2
			CHANNELS 3  Xrotation Yrotation Zrotation
			JOINT left_ankle
			{
				OFFSET	-11.7	-411.3	35.4
				CHANNELS 3  Xrotation Yrotation Zrotation
				JOINT left_toes
				{
					OFFSET	0	-60	-88.6
					CHANNELS 3  Xrotation Yrotation Zrotation
					JOINT left_foot_ee
					{
						OFFSET	-22.5	-16.5	-42.2
						CHANNELS 3  Xrotation Yrotation Zrotation
						End Site
						{
							OFFSET	1	0	0
						}
					}
				}
			}
		}
	}
	JOINT right_hip
	{
		OFFSET	82.8	-127.5	0.300001
		CHANNELS 3  Xrotation Yrotation Zrotation
		JOINT right_knee
		{
			OFFSET	28.2	-396.7	2.2
			CHANNELS 3  Xrotation Yrotation Zrotation
			JOINT right_ankle
			{
				OFFSET	11.7	-411.3	35.4
				CHANNELS 3  Xrotation Yrotation Zrotation
				JOINT right_toes
				{
					OFFSET	0	-60	-88.6
					CHANNELS 3  Xrotation Yrotation Zrotation
					JOINT right_foot_ee
					{
						OFFSET	22.5	-16.5	-42.2
						CHANNELS 3  Xrotation Yrotation Zrotation
						End Site
						{
							OFFSET	1	0	0
						}
					}
				}
			}
		}
	}
}
MOTION
Frames: 9
Frame Time: 0.02
2800.94 716.97 -1473.77 6.46387228718 80.4838607892 -3.01462341834 0.00137595 -0.226697 -0.544126 0.00152029 -0.191614 -0.557448 0.00350515 -0.070213 -0.585264 0.00306351 -0.161762 -0.566831 -10.5009 4.18427 -4.66918 -10.4777 11.0075 -3.46517 -0.0 0.0 -0.0 8.39702 18.2261 15.1278 23.4158 -37.613 68.9346 1.56295 -37.7458 0.534321 -4.07377 -0.161227 0.495028 -1.26493 11.4197 -3.321 -0.0 0.0 -0.0 8.47654 7.16067 -16.5887 -22.9747 -21.7824 -74.8079 0.218413 6.17528 -0.0117817 -71.5261 6.74091 -5.31334 -3.8432 -19.9498 14.9924 0.0 0.0 0.0 -10.2307 31.2565 -5.78625 -4.62298 0.162545 0.690678 32.4765 -21.181 -4.65218 -1.48449 0.0 0.0 -0.0 0.0 -0.0 29.5968 -4.12086 -5.81877 -2.96747 -0.110756 -0.441892 -19.8348 4.42 -3.0617 1.48297 -0.0 -0.0 0.0 0.0 0.0 
2738.14950267 717.876 -1491.28333495 17.8060304585 84.5986458735 -14.8756053919 -0.15209 -0.167015 -0.8671 -0.151679 -0.111502 -0.875969 -0.149722 0.0773966 -0.879638 -0.150796 -0.0624917 -0.880823 -8.36207 4.41432 -4.45331 -8.31355 11.3724 -3.4211 -0.0 0.0 -0.0 7.53776 20.8897 13.4941 19.5778 -40.1561 70.6337 1.51662 -36.9147 0.506225 -3.05426 -0.117577 0.372221 -1.04989 9.30322 -2.89363 -0.0 0.0 -0.0 9.34112 4.03774 -18.4095 -21.1076 -19.688 -71.3384 0.233975 6.6115 -0.0135145 -71.3481 6.71817 -5.31232 -3.68154 -15.7884 16.4814 0.0 0.0 0.0 -7.7439 29.4101 -9.06769 -16.0136 0.321806 2.4284 32.3159 -17.5575 -4.49932 -1.10592 0.0 0.0 -0.0 0.0 -0.0 26.7688 -1.2713 -4.91748 -6.75982 -0.21872 -1.01378 -18.8766 14.0029 -3.07525 3.63024 -0.0 -0.0 0.0 0.0 0.0 
2719.202522 721.349 -1497.06738 21.4031296977 84.1452132833 -18.8943471609 -0.2511 -0.0977547 -0.709021 -0.250821 -0.0524409 -0.713804 -0.250005 0.101851 -0.708444 -0.250706 -0.0113096 -0.715638 -7.75421 3.79281 -4.01011 -7.70693 9.91854 -3.17718 -0.0 0.0 -0.0 6.82138 19.8251 12.4955 17.46 -40.4021 70.2601 1.45618 -35.8025 0.470391 -2.92022 -0.112001 0.356017 -1.21108 9.02586 -4.05665 -0.0 0.0 -0.0 9.67105 3.1641 -19.0855 -20.2668 -18.5212 -70.259 0.270943 7.64456 -0.0181019 -72.4477 6.85868 -5.31751 -3.67436 -14.3115 17.3077 0.0 0.0 0.0 -7.88773 27.6369 -8.9254 -19.2291 0.304015 2.92137 30.5587 -12.3792 -4.16015 0.0425955 -0.0 -0.0 -0.0 0.0 -0.0 25.6322 0.291188 -4.49803 -9.38822 -0.271226 -1.41366 -13.8182 16.9599 -2.29615 4.14091 -0.0 -0.0 0.0 0.0 0.0 
2695.35792028 726.588 -1501.81028658 32.1434206721 85.2356389909 -30.5005757296 -0.466603 0.181838 -0.789416 -0.466286 0.231701 -0.776247 -0.469354 0.395505 -0.706983 -0.469943 0.27889 -0.76057 -8.32383 4.83984 -1.5852 -8.3273 10.1579 -0.487798 -0.0 0.0 -0.0 6.81436 19.2409 12.529 15.1964 -39.9299 70.1098 1.40573 -34.8497 0.441217 -2.80348 -0.107176 0.341896 -1.29996 9.22554 -4.53993 -0.0 0.0 -0.0 9.93726 2.73683 -19.6332 -19.2078 -17.594 -69.4208 0.254101 7.17451 -0.01593 -72.9215 6.91925 -5.3189 -3.60578 -13.3297 17.4305 0.0 0.0 0.0 -7.6074 26.4234 -9.18232 -22.6964 0.253875 3.45097 26.4617 -7.80162 -3.6097 -0.0906511 0.0 0.0 -0.0 0.0 -0.0 24.4018 0.947317 -3.38016 -12.8313 -0.312162 -1.94031 -8.90194 17.676 -1.47882 7.15429 -0.0 -0.0 0.0 0.0 0.0 
2679.80454789 733.548 -1512.34403325 47.5731925535 85.8670356128 -47.4988884472 -0.727218 0.0544908 -0.461112 -0.727103 0.0837218 -0.456711 -0.727723 0.183279 -0.426618 -0.727959 0.113603 -0.450209 -8.35424 3.99199 -3.03071 -8.33509 9.58676 -2.10593 -0.0 0.0 -0.0 6.07581 19.5188 11.3733 12.7342 -40.4604 69.0872 1.34169 -33.6076 0.405194 -2.45117 -0.0927884 0.29922 -1.2332 8.9282 -4.24351 -0.0 0.0 -0.0 10.5023 2.31152 -20.8102 -16.6963 -16.0629 -69.1243 0.345706 9.718 -0.0293884 -73.4337 6.98472 -5.31985 -3.6586 -12.7073 18.144 0.0 0.0 0.0 -6.23763 25.9055 -9.9188 -25.286 0.195573 3.84405 22.2761 -4.50504 -3.06937 0.828906 -0.0 -0.0 -0.0 0.0 -0.0 23.939 1.49055 -3.35066 -15.8515 -0.32197 -2.40352 -6.04348 19.9919 -1.02006 6.57907 -0.0 -0.0 0.0 0.0 0.0 
2653.88833134 741.027 -1515.90134094 71.9992526726 86.3664239532 -71.9653397724 -1.00123 0.208059 -0.121709 -1.00125 0.215382 -0.108223 -1.00168 0.23434 -0.0564487 -1.00162 0.222484 -0.09275 -9.95321 4.15833 -1.88081 -9.96643 9.09744 -0.801422 -0.0 0.0 -0.0 5.27383 18.5384 10.1822 9.20719 -40.6049 68.1658 1.17093 -30.1147 0.315017 -2.41548 -0.0913455 0.294891 -1.18633 8.84117 -3.97995 -0.0 0.0 -0.0 11.1059 1.65956 -22.0608 -12.5129 -13.864 -68.6591 0.436995 12.2148 -0.0467587 -75.4692 7.2448 -5.31777 -3.77075 -10.6696 20.0923 0.0 0.0 0.0 -3.55874 23.9342 -10.1342 -29.7842 0.0522703 4.51934 18.2525 4.90074 -2.51391 1.4065 -0.0 -0.0 -0.0 0.0 -0.0 22.3178 2.14572 -3.5555 -18.0015 -0.314072 -2.73329 -2.36499 19.7069 -0.394858 9.19652 -0.0 -0.0 0.0 0.0 0.0 
2654.11572946 741.027 -1516.68709129 67.5363090375 86.2603863219 -67.4931530668 -1.00123 0.208059 -0.121709 -1.00125 0.215382 -0.108223 -1.00168 0.23434 -0.0564487 -1.00162 0.222484 -0.09275 -9.95321 4.15833 -1.88081 -9.96643 9.09744 -0.801422 -0.0 0.0 -0.0 5.27383 18.5384 10.1822 9.20719 -40.6049 68.1658 1.17093 -30.1147 0.315017 -2.41548 -0.0913455 0.294891 -1.18633 8.84117 -3.97995 -0.0 0.0 -0.0 11.1059 1.65956 -22.0608 -12.5129 -13.864 -68.6591 0.436995 12.2148 -0.0467587 -75.4692 7.2448 -5.31777 -3.77075 -10.6696 20.0923 0.0 0.0 0.0 -3.55874 23.9342 -10.1342 -29.7842 0.0522703 4.51934 18.2525 4.90074 -2.51391 1.4065 -0.0 -0.0 -0.0 0.0 -0.0 22.3178 2.14572 -3.5555 -18.0015 -0.314072 -2.73329 -2.36499 19.7069 -0.394858 9.19652 -0.0 -0.0 0.0 0.0 0.0 
2641.71178512 743.026 -1515.38990883 91.5658587304 86.0798338264 -91.569529162 -1.12925 0.297567 0.0168388 -1.1293 0.295892 0.0357398 -1.12914 0.279803 0.102664 -1.12904 0.292506 0.0571856 -10.0681 4.44257 -0.476727 -10.091 8.6862 0.647919 -0.0 0.0 -0.0 4.99182 18.3702 9.75086 7.54632 -40.5144 67.9776 1.11484 -28.9091 0.287382 -2.49328 -0.0944943 0.304325 -1.15384 8.82416 -3.77769 -0.0 0.0 -0.0 10.9591 1.96301 -21.7639 -10.3157 -12.6432 -68.7339 0.459322 12.8187 -0.0515975 -76.0638 7.32072 -5.3154 -3.68971 -9.87387 19.9989 0.0 0.0 0.0 -2.85233 23.0263 -9.82479 -32.1288 -0.0433416 4.86641 19.5604 9.44421 -2.67817 1.03245 -0.0 -0.0 -0.0 0.0 -0.0 21.4666 2.41465 -3.7388 -19.497 -0.301284 -2.96238 -0.382626 17.6541 -0.0624007 9.67454 -0.0 -0.0 0.0 0.0 0.0 
2642.2989906 743.026 -1517.57492392 80.1653685934 86.0227618548 -80.1420917473 -1.12925 0.297567 0.0168388 -1.1293 0.295892 0.0357398 -1.12914 0.279803 0.102664 -1.12904 0.292506 0.0571856 -10.0681 4.44257 -0.476727 -10.091 8.6862 0.647919 -0.0 0.0 -0.0 4.99182 18.3702 9.75086 7.54632 -40.5144 67.9776 1.11484 -28.9091 0.287382 -2.49328 -0.0944943 0.304325 -1.15384 8.82416 -3.77769 -0.0 0.0 -0.0 10.9591 1.96301 -21.7639 -10.3157 -12.6432 -68.7339 0.459322 12.8187 -0.0515975 -76.0638 7.32072 -5.3154 -3.68971 -9.87387 19.9989 0.0 0.0 0.0 -2.85233 23.0263 -9.82479 -32.1288 -0.0433416 4.86641 19.5604 9.44421 -2.67817 1.03245 -0.0 -0.0 -0.0 0.0 -0.0 21.4666 2.41465 -3.7388 -19.497 -0.301284 -2.96238 -0.382626 17.6541 -0.0624007 9.67454 -0.0 -0.0 0.0 0.0 0.0 
